<?xml version="1.0" encoding="UTF-8"?>
<svg xmlns="http://www.w3.org/2000/svg" xmlns:xlink="http://www.w3.org/1999/xlink" width="28pt" height="27pt" viewBox="0 0 28 27" version="1.1">
<defs>
<radialGradient id="radial0" gradientUnits="userSpaceOnUse" cx="71.531" cy="16.385" fx="71.531" fy="16.385" r="90.78" gradientTransform="matrix(0.314809,0,0,0.30626,1.044313,1.351803)">
<stop offset="0" style="stop-color:rgb(100%,95.294118%,43.137255%);stop-opacity:1;"/>
<stop offset="0.5" style="stop-color:rgb(98.823529%,25.098039%,33.333333%);stop-opacity:1;"/>
<stop offset="1" style="stop-color:rgb(89.019608%,8.235294%,52.941176%);stop-opacity:1;"/>
</radialGradient>
<filter id="alpha" filterUnits="objectBoundingBox" x="0%" y="0%" width="100%" height="100%">
  <feColorMatrix type="matrix" in="SourceGraphic" values="0 0 0 0 1 0 0 0 0 1 0 0 0 0 1 0 0 0 1 0"/>
</filter>
<mask id="mask0">
  <g filter="url(#alpha)">
<rect x="0" y="0" width="28" height="27" style="fill:rgb(0%,0%,0%);fill-opacity:0.670588;stroke:none;"/>
  </g>
</mask>
<radialGradient id="radial1" gradientUnits="userSpaceOnUse" cx="6.629" cy="20.14" fx="6.629" fy="20.14" r="53.726" gradientTransform="matrix(0.314809,0,0,0.30626,1.044313,1.351803)">
<stop offset="0.001" style="stop-color:rgb(77.647059%,0%,51.764706%);stop-opacity:1;"/>
<stop offset="1" style="stop-color:rgb(98.823529%,25.098039%,33.333333%);stop-opacity:0;"/>
</radialGradient>
<clipPath id="clip1">
  <rect x="0" y="0" width="28" height="27"/>
</clipPath>
<g id="surface5" clip-path="url(#clip1)">
<path style=" stroke:none;fill-rule:nonzero;fill:url(#radial1);" d="M 23.691406 6.160156 C 21.421875 3.230469 17.90625 1.460938 14.136719 1.355469 C 11.210938 1.296875 9.191406 2.152344 8.050781 2.839844 C 9.578125 1.976562 11.792969 1.488281 13.730469 1.511719 C 18.710938 1.574219 24.066406 4.875 24.859375 10.824219 C 25.773438 17.65625 20.882812 23.359375 14 23.375 C 6.429688 23.394531 1.828125 16.875 3.03125 11.019531 C 3.054688 10.730469 3.097656 10.445312 3.160156 10.164062 C 3.308594 8.664062 3.757812 7.207031 4.480469 5.871094 C 3.609375 6.308594 2.5 7.699219 1.953125 8.984375 C 1.152344 10.945312 0.875 13.070312 1.132812 15.164062 C 1.152344 15.324219 1.167969 15.480469 1.191406 15.636719 C 2.085938 20.644531 6.058594 24.597656 11.1875 25.578125 C 16.3125 26.558594 21.53125 24.359375 24.304688 20.054688 C 27.078125 15.746094 26.835938 10.222656 23.691406 6.160156 Z M 23.691406 6.160156 "/>
</g>
<radialGradient id="radial2" gradientUnits="userSpaceOnUse" cx="79.291" cy="11.219" fx="79.291" fy="11.219" r="106.599" gradientTransform="matrix(0.314809,0,0,0.30626,1.044313,1.351803)">
<stop offset="0" style="stop-color:rgb(100%,87.058824%,40.392157%);stop-opacity:0.6;"/>
<stop offset="0.093" style="stop-color:rgb(100%,85.098039%,40%);stop-opacity:0.580392;"/>
<stop offset="0.203" style="stop-color:rgb(100%,79.215686%,39.607843%);stop-opacity:0.52549;"/>
<stop offset="0.321" style="stop-color:rgb(99.607843%,69.803922%,38.431373%);stop-opacity:0.431373;"/>
<stop offset="0.446" style="stop-color:rgb(99.607843%,56.078431%,36.862745%);stop-opacity:0.301961;"/>
<stop offset="0.573" style="stop-color:rgb(99.215686%,39.215686%,34.901961%);stop-opacity:0.137255;"/>
<stop offset="0.664" style="stop-color:rgb(98.823529%,25.098039%,33.333333%);stop-opacity:0;"/>
</radialGradient>
<radialGradient id="radial3" gradientUnits="userSpaceOnUse" cx="42.285" cy="44.404" fx="42.285" fy="44.404" r="137.521" gradientTransform="matrix(0.314809,0,0,0.30626,1.044313,1.351803)">
<stop offset="0.153" style="stop-color:rgb(50.588235%,0.784314%,12.54902%);stop-opacity:1;"/>
<stop offset="0.167" style="stop-color:rgb(57.254902%,4.313725%,15.294118%);stop-opacity:0.862745;"/>
<stop offset="0.216" style="stop-color:rgb(79.607843%,15.294118%,25.098039%);stop-opacity:0.396078;"/>
<stop offset="0.253" style="stop-color:rgb(93.72549%,22.352941%,30.980392%);stop-opacity:0.109804;"/>
<stop offset="0.272" style="stop-color:rgb(98.823529%,25.098039%,33.333333%);stop-opacity:0;"/>
</radialGradient>
<radialGradient id="radial4" gradientUnits="userSpaceOnUse" cx="31.878" cy="42.675" fx="31.878" fy="42.675" r="137.521" gradientTransform="matrix(0.314809,0,0,0.30626,1.044313,1.351803)">
<stop offset="0.113" style="stop-color:rgb(50.588235%,0.784314%,12.54902%);stop-opacity:1;"/>
<stop offset="0.133" style="stop-color:rgb(57.254902%,4.313725%,15.294118%);stop-opacity:0.862745;"/>
<stop offset="0.204" style="stop-color:rgb(79.607843%,15.294118%,25.098039%);stop-opacity:0.396078;"/>
<stop offset="0.257" style="stop-color:rgb(93.72549%,22.352941%,30.980392%);stop-opacity:0.109804;"/>
<stop offset="0.284" style="stop-color:rgb(98.823529%,25.098039%,33.333333%);stop-opacity:0;"/>
</radialGradient>
<linearGradient id="linear0" gradientUnits="userSpaceOnUse" x1="45.831" y1="7.787" x2="69.389" y2="48.591" gradientTransform="matrix(0.314809,0,0,0.30626,1.044313,1.351803)">
<stop offset="0" style="stop-color:rgb(100%,74.117647%,30.980392%);stop-opacity:1;"/>
<stop offset="0.508" style="stop-color:rgb(100%,58.823529%,25.098039%);stop-opacity:0;"/>
</linearGradient>
<radialGradient id="radial5" gradientUnits="userSpaceOnUse" cx="-1255.933" cy="-77.395" fx="-1255.933" fy="-77.395" r="88.863" gradientTransform="matrix(0.301901,0,0,0.294316,402.077606,27.83353)">
<stop offset="0" style="stop-color:rgb(100%,58.823529%,25.098039%);stop-opacity:1;"/>
<stop offset="0.8" style="stop-color:rgb(98.823529%,25.098039%,33.333333%);stop-opacity:1;"/>
</radialGradient>
<radialGradient id="radial6" gradientUnits="userSpaceOnUse" cx="-1255.933" cy="-77.395" fx="-1255.933" fy="-77.395" r="88.863" gradientTransform="matrix(0.301901,0,0,0.294316,402.077606,27.83353)">
<stop offset="0.084" style="stop-color:rgb(100%,87.058824%,40.392157%);stop-opacity:1;"/>
<stop offset="0.147" style="stop-color:rgb(100%,86.27451%,40%);stop-opacity:0.968627;"/>
<stop offset="0.246" style="stop-color:rgb(100%,83.529412%,38.431373%);stop-opacity:0.878431;"/>
<stop offset="0.369" style="stop-color:rgb(100%,79.607843%,36.470588%);stop-opacity:0.733333;"/>
<stop offset="0.511" style="stop-color:rgb(100%,73.72549%,33.333333%);stop-opacity:0.533333;"/>
<stop offset="0.667" style="stop-color:rgb(100%,66.666667%,29.411765%);stop-opacity:0.278431;"/>
<stop offset="0.822" style="stop-color:rgb(100%,58.823529%,25.098039%);stop-opacity:0;"/>
</radialGradient>
<mask id="mask1">
  <g filter="url(#alpha)">
<rect x="0" y="0" width="28" height="27" style="fill:rgb(0%,0%,0%);fill-opacity:0.529412;stroke:none;"/>
  </g>
</mask>
<radialGradient id="radial7" gradientUnits="userSpaceOnUse" cx="49.941" cy="38.654" fx="49.941" fy="38.654" r="41.79" gradientTransform="matrix(0.0777577,0.297379,-0.318271,0.0793215,25.184144,-4.727773)">
<stop offset="0.363" style="stop-color:rgb(98.823529%,25.098039%,33.333333%);stop-opacity:1;"/>
<stop offset="0.443" style="stop-color:rgb(99.215686%,37.647059%,30.196078%);stop-opacity:0.631373;"/>
<stop offset="0.545" style="stop-color:rgb(99.607843%,52.54902%,26.666667%);stop-opacity:0.180392;"/>
<stop offset="0.59" style="stop-color:rgb(100%,58.823529%,25.098039%);stop-opacity:0;"/>
</radialGradient>
<clipPath id="clip2">
  <rect x="0" y="0" width="28" height="27"/>
</clipPath>
<g id="surface8" clip-path="url(#clip2)">
<path style=" stroke:none;fill-rule:nonzero;fill:url(#radial7);" d="M 25.167969 10.484375 C 24.457031 4.265625 18.757812 1.472656 13.730469 1.511719 C 11.792969 1.527344 9.578125 1.976562 8.050781 2.839844 C 7.644531 3.074219 7.269531 3.351562 6.929688 3.667969 C 6.96875 3.632812 7.089844 3.535156 7.292969 3.402344 L 7.3125 3.390625 L 7.328125 3.378906 C 8.070312 2.890625 8.890625 2.519531 9.75 2.285156 C 11.101562 1.921875 12.5 1.761719 13.902344 1.8125 C 19.285156 2.125 23.542969 6.367188 23.738281 11.609375 C 23.855469 15.652344 20.453125 18.878906 16.527344 19.066406 C 13.675781 19.203125 10.988281 17.859375 9.675781 15.171875 C 9.367188 14.5625 9.160156 13.90625 9.058594 13.234375 C 8.433594 9.144531 11.257812 5.65625 13.84375 4.792969 C 12.449219 3.609375 8.949219 3.6875 6.347656 5.550781 C 4.472656 6.894531 3.253906 8.9375 2.851562 11.371094 C 2.5625 13.238281 2.816406 15.148438 3.589844 16.882812 C 5.222656 20.632812 8.886719 23.171875 13.0625 23.449219 C 13.375 23.472656 13.6875 23.484375 14 23.484375 C 22.332031 23.484375 25.945312 17.332031 25.167969 10.484375 Z M 25.167969 10.484375 "/>
</g>
<mask id="mask2">
  <g filter="url(#alpha)">
<rect x="0" y="0" width="28" height="27" style="fill:rgb(0%,0%,0%);fill-opacity:0.529412;stroke:none;"/>
  </g>
</mask>
<radialGradient id="radial8" gradientUnits="userSpaceOnUse" cx="42.737" cy="42.098" fx="42.737" fy="42.098" r="41.79" gradientTransform="matrix(0.314809,0,0,0.30626,1.044313,1.351803)">
<stop offset="0.216" style="stop-color:rgb(98.823529%,25.098039%,33.333333%);stop-opacity:0.8;"/>
<stop offset="0.267" style="stop-color:rgb(99.215686%,32.156863%,31.764706%);stop-opacity:0.631373;"/>
<stop offset="0.41" style="stop-color:rgb(99.607843%,51.372549%,27.058824%);stop-opacity:0.180392;"/>
<stop offset="0.474" style="stop-color:rgb(100%,58.823529%,25.098039%);stop-opacity:0;"/>
</radialGradient>
<clipPath id="clip3">
  <rect x="0" y="0" width="28" height="27"/>
</clipPath>
<g id="surface11" clip-path="url(#clip3)">
<path style=" stroke:none;fill-rule:nonzero;fill:url(#radial8);" d="M 25.167969 10.484375 C 24.457031 4.265625 18.757812 1.472656 13.730469 1.511719 C 11.792969 1.527344 9.578125 1.976562 8.050781 2.839844 C 7.644531 3.074219 7.269531 3.351562 6.929688 3.667969 C 6.96875 3.632812 7.089844 3.535156 7.292969 3.402344 L 7.3125 3.390625 L 7.328125 3.378906 C 8.070312 2.890625 8.890625 2.519531 9.75 2.285156 C 11.101562 1.921875 12.5 1.761719 13.902344 1.8125 C 19.285156 2.125 23.542969 6.367188 23.738281 11.609375 C 23.855469 15.652344 20.453125 18.878906 16.527344 19.066406 C 13.675781 19.203125 10.988281 17.859375 9.675781 15.171875 C 9.367188 14.5625 9.160156 13.90625 9.058594 13.234375 C 8.433594 9.144531 11.257812 5.65625 13.84375 4.792969 C 12.449219 3.609375 8.949219 3.6875 6.347656 5.550781 C 4.472656 6.894531 3.253906 8.9375 2.851562 11.371094 C 2.5625 13.238281 2.816406 15.148438 3.589844 16.882812 C 5.222656 20.632812 8.886719 23.171875 13.0625 23.449219 C 13.375 23.472656 13.6875 23.484375 14 23.484375 C 22.332031 23.484375 25.945312 17.332031 25.167969 10.484375 Z M 25.167969 10.484375 "/>
</g>
<radialGradient id="radial9" gradientUnits="userSpaceOnUse" cx="-1238.198" cy="-87.433" fx="-1238.198" fy="-87.433" r="150.195" gradientTransform="matrix(0.301901,0,0,0.294316,402.077606,27.83353)">
<stop offset="0.054" style="stop-color:rgb(100%,95.294118%,43.137255%);stop-opacity:1;"/>
<stop offset="0.457" style="stop-color:rgb(100%,58.823529%,25.098039%);stop-opacity:1;"/>
<stop offset="0.639" style="stop-color:rgb(100%,58.823529%,25.098039%);stop-opacity:1;"/>
</radialGradient>
<linearGradient id="linear1" gradientUnits="userSpaceOnUse" x1="59.052" y1="7.083" x2="18.155" y2="77.92" gradientTransform="matrix(0.314809,0,0,0.30626,1.044313,1.351803)">
<stop offset="0" style="stop-color:rgb(100%,95.294118%,43.137255%);stop-opacity:0.8;"/>
<stop offset="0.094" style="stop-color:rgb(100%,95.294118%,43.137255%);stop-opacity:0.698039;"/>
<stop offset="0.752" style="stop-color:rgb(100%,95.294118%,43.137255%);stop-opacity:0;"/>
</linearGradient>
<linearGradient id="linear2" gradientUnits="userSpaceOnUse" x1="40.585" y1="-0.67" x2="62.3" y2="62.203" gradientTransform="matrix(0.314809,0,0,0.30626,1.044313,1.351803)">
<stop offset="0" style="stop-color:rgb(72.156863%,20%,88.235294%);stop-opacity:1;"/>
<stop offset="0.371" style="stop-color:rgb(56.470588%,34.901961%,100%);stop-opacity:1;"/>
<stop offset="0.614" style="stop-color:rgb(35.686275%,42.745098%,97.254902%);stop-opacity:1;"/>
<stop offset="1" style="stop-color:rgb(0%,56.470588%,92.941176%);stop-opacity:1;"/>
</linearGradient>
<linearGradient id="linear3" gradientUnits="userSpaceOnUse" x1="27.71" y1="0.324" x2="68.071" y2="40.685" gradientTransform="matrix(0.314809,0,0,0.30626,1.044313,1.351803)">
<stop offset="0.805" style="stop-color:rgb(44.705882%,13.333333%,56.862745%);stop-opacity:0;"/>
<stop offset="1" style="stop-color:rgb(34.901961%,16.470588%,79.607843%);stop-opacity:0.501961;"/>
</linearGradient>
</defs>
<g id="surface1">
<path style=" stroke:none;fill-rule:nonzero;fill:url(#radial0);" d="M 23.691406 6.160156 C 21.421875 3.230469 17.90625 1.460938 14.136719 1.355469 C 11.210938 1.296875 9.191406 2.152344 8.050781 2.839844 C 9.578125 1.976562 11.792969 1.488281 13.730469 1.511719 C 18.710938 1.574219 24.066406 4.875 24.859375 10.824219 C 25.773438 17.65625 20.882812 23.359375 14 23.375 C 6.429688 23.394531 1.828125 16.875 3.03125 11.019531 C 3.054688 10.730469 3.097656 10.445312 3.160156 10.164062 C 3.308594 8.664062 3.757812 7.207031 4.480469 5.871094 C 3.609375 6.308594 2.5 7.699219 1.953125 8.984375 C 1.152344 10.945312 0.875 13.070312 1.132812 15.164062 C 1.152344 15.324219 1.167969 15.480469 1.191406 15.636719 C 2.085938 20.644531 6.058594 24.597656 11.1875 25.578125 C 16.3125 26.558594 21.53125 24.359375 24.304688 20.054688 C 27.078125 15.746094 26.835938 10.222656 23.691406 6.160156 Z M 23.691406 6.160156 "/>
<use xlink:href="#surface5" mask="url(#mask0)"/>
<path style=" stroke:none;fill-rule:nonzero;fill:url(#radial2);" d="M 23.691406 6.160156 C 21.421875 3.230469 17.90625 1.460938 14.136719 1.355469 C 11.210938 1.296875 9.191406 2.152344 8.050781 2.839844 C 9.578125 1.976562 11.792969 1.488281 13.730469 1.511719 C 18.710938 1.574219 24.066406 4.875 24.859375 10.824219 C 25.773438 17.65625 20.882812 23.359375 14 23.375 C 6.429688 23.394531 1.828125 16.875 3.03125 11.019531 C 3.054688 10.730469 3.097656 10.445312 3.160156 10.164062 C 3.308594 8.664062 3.757812 7.207031 4.480469 5.871094 C 3.609375 6.308594 2.5 7.699219 1.953125 8.984375 C 1.152344 10.945312 0.875 13.070312 1.132812 15.164062 C 1.152344 15.324219 1.167969 15.480469 1.191406 15.636719 C 2.085938 20.644531 6.058594 24.597656 11.1875 25.578125 C 16.3125 26.558594 21.53125 24.359375 24.304688 20.054688 C 27.078125 15.746094 26.835938 10.222656 23.691406 6.160156 Z M 23.691406 6.160156 "/>
<path style=" stroke:none;fill-rule:nonzero;fill:url(#radial3);" d="M 23.691406 6.160156 C 21.421875 3.230469 17.90625 1.460938 14.136719 1.355469 C 11.210938 1.296875 9.191406 2.152344 8.050781 2.839844 C 9.578125 1.976562 11.792969 1.488281 13.730469 1.511719 C 18.710938 1.574219 24.066406 4.875 24.859375 10.824219 C 25.773438 17.65625 20.882812 23.359375 14 23.375 C 6.429688 23.394531 1.828125 16.875 3.03125 11.019531 C 3.054688 10.730469 3.097656 10.445312 3.160156 10.164062 C 3.308594 8.664062 3.757812 7.207031 4.480469 5.871094 C 3.609375 6.308594 2.5 7.699219 1.953125 8.984375 C 1.152344 10.945312 0.875 13.070312 1.132812 15.164062 C 1.152344 15.324219 1.167969 15.480469 1.191406 15.636719 C 2.085938 20.644531 6.058594 24.597656 11.1875 25.578125 C 16.3125 26.558594 21.53125 24.359375 24.304688 20.054688 C 27.078125 15.746094 26.835938 10.222656 23.691406 6.160156 Z M 23.691406 6.160156 "/>
<path style=" stroke:none;fill-rule:nonzero;fill:url(#radial4);" d="M 23.691406 6.160156 C 21.421875 3.230469 17.90625 1.460938 14.136719 1.355469 C 11.210938 1.296875 9.191406 2.152344 8.050781 2.839844 C 9.578125 1.976562 11.792969 1.488281 13.730469 1.511719 C 18.710938 1.574219 24.066406 4.875 24.859375 10.824219 C 25.773438 17.65625 20.882812 23.359375 14 23.375 C 6.429688 23.394531 1.828125 16.875 3.03125 11.019531 C 3.054688 10.730469 3.097656 10.445312 3.160156 10.164062 C 3.308594 8.664062 3.757812 7.207031 4.480469 5.871094 C 3.609375 6.308594 2.5 7.699219 1.953125 8.984375 C 1.152344 10.945312 0.875 13.070312 1.132812 15.164062 C 1.152344 15.324219 1.167969 15.480469 1.191406 15.636719 C 2.085938 20.644531 6.058594 24.597656 11.1875 25.578125 C 16.3125 26.558594 21.53125 24.359375 24.304688 20.054688 C 27.078125 15.746094 26.835938 10.222656 23.691406 6.160156 Z M 23.691406 6.160156 "/>
<path style=" stroke:none;fill-rule:nonzero;fill:url(#linear0);" d="M 24.859375 10.824219 C 24.957031 11.5625 24.992188 12.304688 24.953125 13.046875 C 25.371094 12.984375 25.789062 12.929688 26.210938 12.882812 C 26.078125 10.449219 25.199219 8.109375 23.691406 6.160156 C 21.421875 3.230469 17.90625 1.460938 14.136719 1.355469 C 11.210938 1.296875 9.191406 2.152344 8.050781 2.839844 C 9.578125 1.976562 11.792969 1.488281 13.730469 1.511719 C 18.710938 1.574219 24.066406 4.875 24.859375 10.824219 Z M 24.859375 10.824219 "/>
<path style=" stroke:none;fill-rule:nonzero;fill:url(#radial5);" d="M 25.167969 10.484375 C 24.457031 4.265625 18.757812 1.472656 13.730469 1.511719 C 11.792969 1.527344 9.578125 1.976562 8.050781 2.839844 C 7.644531 3.074219 7.269531 3.351562 6.929688 3.667969 C 6.96875 3.632812 7.089844 3.535156 7.292969 3.402344 L 7.3125 3.390625 L 7.328125 3.378906 C 8.070312 2.890625 8.890625 2.519531 9.75 2.285156 C 11.101562 1.921875 12.5 1.761719 13.902344 1.8125 C 19.285156 2.125 23.542969 6.367188 23.738281 11.609375 C 23.855469 15.652344 20.453125 18.878906 16.527344 19.066406 C 13.675781 19.203125 10.988281 17.859375 9.675781 15.171875 C 9.367188 14.5625 9.160156 13.90625 9.058594 13.234375 C 8.433594 9.144531 11.257812 5.65625 13.84375 4.792969 C 12.449219 3.609375 8.949219 3.6875 6.347656 5.550781 C 4.472656 6.894531 3.253906 8.9375 2.851562 11.371094 C 2.5625 13.238281 2.816406 15.148438 3.589844 16.882812 C 5.222656 20.632812 8.886719 23.171875 13.0625 23.449219 C 13.375 23.472656 13.6875 23.484375 14 23.484375 C 22.332031 23.484375 25.945312 17.332031 25.167969 10.484375 Z M 25.167969 10.484375 "/>
<path style=" stroke:none;fill-rule:nonzero;fill:url(#radial6);" d="M 25.167969 10.484375 C 24.457031 4.265625 18.757812 1.472656 13.730469 1.511719 C 11.792969 1.527344 9.578125 1.976562 8.050781 2.839844 C 7.644531 3.074219 7.269531 3.351562 6.929688 3.667969 C 6.96875 3.632812 7.089844 3.535156 7.292969 3.402344 L 7.3125 3.390625 L 7.328125 3.378906 C 8.070312 2.890625 8.890625 2.519531 9.75 2.285156 C 11.101562 1.921875 12.5 1.761719 13.902344 1.8125 C 19.285156 2.125 23.542969 6.367188 23.738281 11.609375 C 23.855469 15.652344 20.453125 18.878906 16.527344 19.066406 C 13.675781 19.203125 10.988281 17.859375 9.675781 15.171875 C 9.367188 14.5625 9.160156 13.90625 9.058594 13.234375 C 8.433594 9.144531 11.257812 5.65625 13.84375 4.792969 C 12.449219 3.609375 8.949219 3.6875 6.347656 5.550781 C 4.472656 6.894531 3.253906 8.9375 2.851562 11.371094 C 2.5625 13.238281 2.816406 15.148438 3.589844 16.882812 C 5.222656 20.632812 8.886719 23.171875 13.0625 23.449219 C 13.375 23.472656 13.6875 23.484375 14 23.484375 C 22.332031 23.484375 25.945312 17.332031 25.167969 10.484375 Z M 25.167969 10.484375 "/>
<use xlink:href="#surface8" mask="url(#mask1)"/>
<use xlink:href="#surface11" mask="url(#mask2)"/>
<path style=" stroke:none;fill-rule:nonzero;fill:url(#radial9);" d="M 16.527344 19.066406 C 21.914062 18.746094 24.214844 14.410156 24.359375 11.335938 C 24.585938 6.527344 21.65625 1.34375 13.902344 1.8125 C 12.5 1.761719 11.101562 1.921875 9.75 2.285156 C 8.894531 2.53125 8.078125 2.898438 7.328125 3.378906 L 7.3125 3.390625 L 7.292969 3.402344 C 7.171875 3.484375 7.054688 3.570312 6.9375 3.660156 C 8.945312 2.570312 11.265625 2.144531 13.542969 2.457031 C 17.996094 3.023438 22.066406 6.394531 22.066406 10.839844 C 22.066406 14.257812 19.347656 16.871094 16.164062 16.683594 C 11.4375 16.410156 10.246094 11.691406 12.707031 9.65625 C 12.042969 9.515625 10.796875 9.789062 9.929688 11.050781 C 9.152344 12.183594 9.195312 13.933594 9.675781 15.171875 C 10.902344 17.734375 13.632812 19.285156 16.527344 19.066406 Z M 16.527344 19.066406 "/>
<path style=" stroke:none;fill-rule:nonzero;fill:url(#linear1);" d="M 23.691406 6.160156 C 23.355469 5.730469 22.988281 5.324219 22.597656 4.941406 C 22.285156 4.621094 21.949219 4.320312 21.597656 4.042969 C 21.800781 4.21875 21.996094 4.398438 22.179688 4.59375 C 22.867188 5.308594 23.390625 6.160156 23.714844 7.085938 C 24.375 9.023438 24.332031 11.449219 23.074219 13.355469 C 21.65625 15.527344 19.152344 16.800781 16.507812 16.691406 C 16.394531 16.691406 16.28125 16.691406 16.164062 16.683594 C 11.4375 16.410156 10.246094 11.691406 12.707031 9.65625 C 12.042969 9.515625 10.796875 9.789062 9.929688 11.050781 C 9.152344 12.183594 9.195312 13.933594 9.675781 15.171875 C 9.367188 14.5625 9.160156 13.90625 9.058594 13.234375 C 8.433594 9.144531 11.257812 5.65625 13.84375 4.792969 C 12.449219 3.609375 8.949219 3.6875 6.347656 5.550781 C 4.816406 6.664062 3.699219 8.234375 3.171875 10.023438 C 3.339844 8.574219 3.785156 7.164062 4.480469 5.871094 C 3.609375 6.3125 2.5 7.699219 1.953125 8.984375 C 1.15625 10.945312 0.875 13.070312 1.132812 15.164062 C 1.152344 15.324219 1.167969 15.480469 1.191406 15.636719 C 2.085938 20.644531 6.058594 24.597656 11.1875 25.578125 C 16.3125 26.558594 21.53125 24.359375 24.304688 20.054688 C 27.078125 15.746094 26.835938 10.222656 23.691406 6.160156 Z M 23.691406 6.160156 "/>
<path style=" stroke:none;fill-rule:nonzero;fill:url(#linear2);" d="M 23.714844 7.085938 C 23.390625 6.160156 22.867188 5.308594 22.179688 4.59375 C 21.359375 3.761719 20.390625 3.089844 19.316406 2.605469 C 18.421875 2.175781 17.476562 1.847656 16.5 1.632812 C 14.785156 1.269531 13.007812 1.257812 11.285156 1.601562 C 9.496094 1.96875 7.925781 2.722656 6.929688 3.664062 C 7.722656 3.230469 8.574219 2.898438 9.457031 2.683594 C 12.949219 1.832031 16.648438 2.765625 19.269531 5.164062 C 19.792969 5.648438 20.253906 6.195312 20.632812 6.789062 C 22.175781 9.226562 22.027344 12.289062 20.828125 14.097656 C 19.933594 15.441406 18.023438 16.703125 16.238281 16.6875 C 18.976562 16.886719 21.601562 15.609375 23.074219 13.355469 C 24.332031 11.449219 24.375 9.023438 23.714844 7.085938 Z M 23.714844 7.085938 "/>
<path style=" stroke:none;fill-rule:nonzero;fill:url(#linear3);" d="M 23.714844 7.085938 C 23.390625 6.160156 22.867188 5.308594 22.179688 4.59375 C 21.359375 3.761719 20.390625 3.089844 19.316406 2.605469 C 18.421875 2.175781 17.476562 1.847656 16.5 1.632812 C 14.785156 1.269531 13.007812 1.257812 11.285156 1.601562 C 9.496094 1.96875 7.925781 2.722656 6.929688 3.664062 C 7.722656 3.230469 8.574219 2.898438 9.457031 2.683594 C 12.949219 1.832031 16.648438 2.765625 19.269531 5.164062 C 19.792969 5.648438 20.253906 6.195312 20.632812 6.789062 C 22.175781 9.226562 22.027344 12.289062 20.828125 14.097656 C 19.933594 15.441406 18.023438 16.703125 16.238281 16.6875 C 18.976562 16.886719 21.601562 15.609375 23.074219 13.355469 C 24.332031 11.449219 24.375 9.023438 23.714844 7.085938 Z M 23.714844 7.085938 "/>
</g>
</svg>
