<svg xmlns="http://www.w3.org/2000/svg" width="38.001" height="60.059" viewBox="0 0 38.001 60.059">
  <path id="Shape" d="M2,56H20.94l-1.83,3.54A1,1,0,0,0,20.28,61l17-5A1,1,0,0,0,38,55L36,31a1,1,0,0,0-.43-.73L22.18,20.62,27,6.32a1,1,0,0,0-1.5-1.19L12.27,12.69,3.8,1.4A1,1,0,0,0,2,1.87C0,17.32,0,16.86,0,17V54a2,2,0,0,0,2,2Zm33.94-1.73L22,58.38,34.29,34.55Zm-2.23-23L22,54H2.75L21.31,22.45ZM24.22,8.17,20.5,19.34l-6.71-5.21Zm-4.77,12.9L8.35,31.31l-6-13.65,9.4-2.56ZM3.67,4.56l6.65,8.86L2.19,15.64ZM2,21.78,7.08,33.4a1,1,0,0,0,1.6.33l8-7.41L2,51.32Z" transform="translate(0 -0.99)" fill="#fff"/>
</svg>
